<?xml version="1.0" standalone="no"?>
<!DOCTYPE svg PUBLIC "-//W3C//DTD SVG 20010904//EN"
 "http://www.w3.org/TR/2001/REC-SVG-20010904/DTD/svg10.dtd">
<svg version="1.0" xmlns="http://www.w3.org/2000/svg"
 width="569.000000pt" height="211.000000pt" viewBox="0 0 569.000000 211.000000"
 preserveAspectRatio="xMidYMid meet">

<g transform="translate(0.000000,211.000000) scale(0.100000,-0.100000)"
fill="#000000" stroke="none">
<path d="M3347 1670 c-46 -22 -53 -29 -37 -33 20 -5 21 -11 18 -261 l-3 -256
63 0 63 0 -15 22 c-14 19 -16 64 -16 290 0 148 -3 268 -7 267 -5 0 -34 -13
-66 -29z"/>
<path d="M3561 1671 c-40 -20 -49 -29 -37 -34 14 -6 16 -34 16 -262 l0 -255
65 0 65 0 -20 20 c-19 19 -20 33 -20 290 0 149 -3 270 -7 270 -5 -1 -32 -14
-62 -29z"/>
<path d="M2337 1641 c29 -4 65 -16 80 -27 34 -25 56 -86 49 -132 -5 -32 -3
-31 43 30 46 59 48 64 32 82 -32 37 -91 56 -176 54 -73 -1 -76 -1 -28 -7z"/>
<path d="M3126 1634 c-32 -31 -8 -84 38 -84 29 0 46 18 46 50 0 14 -5 31 -12
38 -17 17 -54 15 -72 -4z"/>
<path d="M2214 1621 c-100 -46 -156 -130 -156 -235 0 -144 84 -239 234 -267
83 -15 165 0 206 37 l27 25 -34 -16 c-85 -42 -206 -8 -268 74 -89 116 -80 313
17 379 40 27 29 28 -26 3z"/>
<path d="M1017 1613 c-4 -3 -7 -21 -7 -40 0 -20 -19 -70 -49 -128 -55 -104
-51 -107 40 -27 31 27 74 59 95 72 22 13 41 25 43 26 2 2 -11 20 -28 41 -17
21 -36 44 -42 51 -10 13 -41 16 -52 5z"/>
<path d="M1336 1548 l-35 -43 22 -23 c31 -33 50 -42 114 -52 65 -11 105 -42
133 -103 14 -31 17 -56 13 -121 -4 -58 -2 -90 8 -107 13 -23 13 -23 30 31 26
82 24 160 -6 220 -14 27 -25 56 -25 64 0 16 -106 108 -150 131 -15 8 -30 21
-33 30 -11 26 -34 17 -71 -27z"/>
<path d="M2840 1486 c0 -2 16 -13 35 -25 l35 -20 0 -139 c0 -152 -3 -162 -57
-162 -49 0 -85 22 -111 69 -51 91 -35 222 31 255 45 22 11 20 -38 -3 -102 -46
-148 -188 -88 -269 40 -54 69 -67 146 -66 40 0 81 2 92 4 11 1 46 -1 79 -5 57
-7 58 -7 47 13 -7 12 -11 80 -11 171 l0 149 -32 10 c-37 11 -128 24 -128 18z"/>
<path d="M3947 1470 c36 -22 53 -48 53 -82 0 -39 -18 -48 -102 -48 -77 0 -78
0 -78 25 0 34 24 80 52 99 29 21 6 20 -35 0 -93 -47 -130 -128 -101 -223 24
-81 89 -121 197 -121 48 0 109 19 121 39 5 7 -3 7 -24 -1 -41 -14 -111 -5
-144 18 -31 23 -66 90 -66 127 l0 27 108 0 c123 0 145 9 145 59 0 53 -64 101
-138 101 -16 0 -13 -4 12 -20z"/>
<path d="M4385 1467 l40 -23 3 -138 c3 -154 -1 -166 -55 -166 -86 0 -137 68
-138 186 0 82 16 121 60 141 l30 14 -30 -6 c-45 -9 -84 -35 -119 -78 -28 -35
-31 -46 -31 -107 0 -74 14 -103 69 -144 22 -17 42 -21 99 -20 40 0 81 2 92 4
11 1 47 0 80 -5 49 -6 58 -5 48 6 -9 9 -13 58 -13 170 l0 157 -32 10 c-18 6
-58 13 -88 16 l-55 6 40 -23z"/>
<path d="M1166 1468 c-53 -10 -79 -26 -122 -77 l-28 -33 52 26 c42 21 65 26
127 26 49 0 87 -5 106 -16 57 -29 65 -13 19 39 -46 51 -57 54 -154 35z"/>
<path d="M3103 1473 c15 -4 17 -21 17 -179 l0 -174 55 0 c52 0 55 1 45 19 -6
11 -10 89 -10 180 l0 161 -62 -1 c-35 -1 -55 -3 -45 -6z"/>
<path d="M4630 1461 c5 -11 10 -72 10 -136 0 -169 20 -205 113 -205 30 0 63
10 101 29 l56 30 0 -30 c0 -27 2 -29 38 -28 35 0 92 17 63 18 -10 1 -12 33
-10 171 l4 170 -59 0 c-47 0 -57 -3 -48 -12 8 -8 12 -55 12 -144 0 -130 0
-132 -25 -148 -31 -21 -77 -30 -108 -22 -38 9 -47 46 -47 191 l0 135 -55 0
c-52 0 -55 -1 -45 -19z"/>
<path d="M1165 1392 c-14 -9 -65 -79 -65 -87 0 -4 9 -18 19 -31 l19 -25 7 30
c4 21 20 39 51 58 24 15 44 31 44 35 0 3 -14 11 -31 17 -37 13 -32 12 -44 3z"/>
<path d="M1405 1383 c4 -10 11 -29 15 -43 4 -14 18 -46 31 -70 19 -37 23 -58
22 -122 -1 -43 2 -78 7 -78 18 0 48 57 65 127 18 68 18 73 1 118 -21 54 -63
85 -115 85 -28 0 -32 -3 -26 -17z"/>
<path d="M778 1357 c-152 -191 -79 -358 229 -519 70 -37 114 -67 125 -85 21
-34 23 -15 4 31 -15 36 -68 77 -149 116 -29 13 -60 39 -77 61 -38 53 -64 165
-62 263 2 81 -9 136 -31 155 -9 7 -20 1 -39 -22z"/>
<path d="M1266 1341 c-3 -5 15 -12 40 -16 26 -3 54 -9 63 -13 13 -4 12 -1 -3
16 -20 23 -89 32 -100 13z"/>
<path d="M979 1323 c-36 -40 -72 -128 -76 -188 -7 -89 9 -137 61 -180 52 -42
61 -44 43 -7 -8 15 -20 50 -27 79 -13 50 -12 55 13 105 30 59 35 132 14 181
-12 28 -13 28 -28 10z"/>
<path d="M1218 1278 c-37 -22 -53 -46 -22 -34 9 3 39 9 68 12 60 7 68 0 101
-94 l19 -53 18 23 c30 40 23 85 -21 129 -33 34 -45 39 -82 39 -27 0 -59 -9
-81 -22z"/>
<path d="M1232 1208 c-14 -14 -16 -44 -2 -53 5 -3 12 5 16 19 8 34 2 50 -14
34z"/>
<path d="M1679 1208 c0 -2 -3 -14 -5 -28 -3 -13 -9 -29 -14 -34 -6 -6 -10 -21
-10 -34 0 -31 -13 -55 -69 -125 -27 -34 -65 -68 -91 -82 -25 -13 -95 -57 -157
-98 l-112 -74 97 5 c68 3 118 12 166 29 38 14 112 34 165 44 158 32 169 47
152 214 -7 61 -15 126 -19 145 -7 33 -10 35 -55 38 -26 2 -47 2 -48 0z"/>
<path d="M1080 1138 c0 -29 9 -102 20 -162 16 -89 24 -114 46 -137 34 -36 71
-44 125 -28 40 12 58 28 144 122 17 18 41 40 55 49 24 16 23 16 -15 3 -75 -26
-126 -20 -191 25 -73 49 -117 90 -151 141 -14 21 -27 39 -29 39 -2 0 -4 -24
-4 -52z"/>
<path d="M1305 1170 c10 -11 20 -20 22 -20 2 0 -1 9 -7 20 -6 11 -16 20 -22
20 -6 0 -3 -9 7 -20z"/>
<path d="M1138 1164 c13 -25 66 -73 121 -113 45 -32 113 -43 127 -20 3 6 19
19 36 29 l29 18 -78 -1 c-85 -1 -129 15 -207 76 -28 22 -36 26 -28 11z"/>
<path d="M1265 1140 c3 -5 16 -10 28 -10 18 0 19 2 7 10 -20 13 -43 13 -35 0z"/>
<path d="M664 1045 c20 -57 25 -121 14 -181 -13 -72 -4 -119 38 -191 19 -33
35 -45 77 -61 71 -27 147 -36 193 -23 44 12 60 4 69 -39 4 -16 14 -31 23 -34
88 -26 160 -12 256 50 51 32 80 44 108 44 45 0 47 8 11 50 -39 47 -65 53 -133
34 -39 -11 -84 -15 -132 -13 -68 4 -78 7 -137 49 -35 25 -91 70 -125 101 -33
30 -83 73 -111 94 -27 21 -74 62 -104 89 -33 32 -51 43 -47 31z"/>
<path d="M1514 1014 c-18 -14 -18 -15 4 -4 12 6 22 13 22 15 0 8 -5 6 -26 -11z"/>
<path d="M2443 858 c-21 -10 -32 -28 -18 -28 10 0 65 30 65 35 0 8 -23 4 -47
-7z"/>
<path d="M3520 861 c0 -10 61 -34 68 -27 4 4 -51 36 -63 36 -3 0 -5 -4 -5 -9z"/>
<path d="M2209 825 c-3 -2 -14 -6 -25 -8 -49 -8 -136 -79 -127 -103 7 -18 33
-18 33 -1 0 14 39 51 46 44 3 -3 -6 -49 -20 -103 -36 -143 -41 -188 -23 -202
12 -10 15 -5 20 35 6 57 9 70 39 192 21 84 26 96 51 105 15 6 27 13 27 16 0 3
24 4 53 2 59 -4 82 -18 54 -33 -9 -6 -15 -14 -13 -18 11 -17 -140 -131 -172
-131 -17 0 -15 -15 3 -30 12 -10 20 -9 42 6 16 11 33 21 40 24 7 3 44 34 83
69 39 35 73 61 75 59 10 -9 -38 -138 -51 -138 -15 0 -19 -12 -7 -24 4 -3 7
-26 8 -51 1 -70 52 -111 109 -89 9 3 13 10 10 15 -3 5 1 6 9 4 7 -3 26 6 43
21 32 29 34 29 -70 -2 -54 -16 -60 -16 -70 -1 -7 8 -10 32 -8 52 4 31 10 39
40 52 20 8 43 16 52 18 9 2 34 11 56 21 53 23 24 29 -56 10 -35 -8 -66 -14
-67 -12 -2 2 6 30 18 62 22 62 51 96 73 88 8 -3 17 -1 21 5 3 6 19 11 36 11
16 0 29 5 29 11 0 16 -151 2 -180 -16 -6 -4 -24 5 -41 19 -24 21 -41 26 -83
26 -29 0 -55 -2 -57 -5z"/>
<path d="M2668 820 c-16 -5 -28 -5 -28 -2 0 4 -4 2 -8 -4 -4 -5 -24 -20 -45
-33 -40 -24 -57 -48 -50 -68 3 -7 12 -13 21 -13 8 0 12 3 9 7 -9 8 22 43 38
43 9 0 4 -35 -16 -117 -33 -133 -35 -165 -15 -182 12 -10 15 -6 16 26 2 64 6
97 15 116 7 16 9 16 24 3 15 -14 21 -13 59 10 23 14 40 29 37 35 -3 5 0 7 7 4
14 -6 98 67 116 100 20 38 26 4 14 -93 -7 -53 -12 -109 -12 -124 0 -21 -5 -28
-20 -28 -25 0 -26 -19 -2 -26 9 -3 25 -10 35 -15 11 -6 17 -6 17 1 0 5 21 16
47 23 67 20 70 40 4 31 -60 -8 -57 -15 -40 130 17 141 14 134 64 147 63 16 56
30 -15 27 -33 -2 -60 -6 -60 -9 0 -18 -35 -17 -57 1 -27 21 -102 26 -155 10z
m147 -43 c0 -32 -18 -51 -99 -108 -73 -51 -105 -61 -102 -31 0 9 4 19 8 22 3
3 12 30 20 60 16 65 37 80 118 80 52 0 56 -2 55 -23z"/>
<path d="M3220 743 c0 -146 -34 -283 -70 -283 -11 0 -32 70 -32 106 0 19 -3
34 -6 34 -4 0 -8 37 -10 83 -3 88 -21 129 -59 135 -18 3 -21 -7 -33 -125 -18
-173 -18 -245 -2 -251 9 -3 12 7 11 35 -1 21 3 57 9 81 6 24 6 44 1 48 -5 3
-5 13 1 25 6 10 14 49 17 85 3 36 9 61 13 57 4 -4 13 -57 19 -118 15 -139 26
-180 54 -200 40 -28 55 -20 73 41 19 67 21 81 30 205 4 63 3 103 -4 115 -9 15
-11 -1 -12 -73z"/>
<path d="M3721 819 c-13 -5 -58 -11 -100 -14 -81 -4 -84 -5 -148 -25 -30 -9
-43 -19 -43 -32 0 -21 12 -23 42 -7 11 6 21 9 23 7 2 -2 -5 -34 -17 -71 -12
-42 -25 -67 -34 -67 -12 0 -12 -4 -4 -20 6 -12 8 -29 5 -40 -3 -10 1 -34 9
-53 22 -53 69 -73 100 -41 9 8 16 11 16 6 0 -15 46 9 60 32 10 16 10 18 -4 13
-51 -20 -129 -38 -142 -33 -18 7 -19 80 -1 98 8 7 48 24 90 38 77 23 98 40 53
40 -13 0 -29 7 -36 15 -11 13 -6 23 34 60 45 44 84 60 73 31 -3 -8 -14 -80
-23 -160 -14 -114 -15 -149 -6 -158 9 -9 12 -4 14 22 0 19 2 44 3 55 1 11 3
26 4 33 0 6 12 12 26 12 14 0 25 5 25 12 0 6 3 8 7 5 3 -4 12 -2 20 5 7 6 15
9 17 7 1 -2 18 -26 36 -54 47 -71 71 -95 94 -95 20 0 20 0 0 15 -12 8 -43 46
-69 84 l-48 70 42 39 c22 21 41 42 41 46 0 4 7 14 15 22 23 23 18 53 -14 85
-25 25 -37 29 -83 28 -29 0 -64 -5 -77 -10z m144 -23 c32 -21 22 -58 -30 -112
-23 -24 -40 -46 -38 -49 1 -3 -3 -1 -9 5 -18 15 -41 12 -35 -5 6 -13 -41 -61
-50 -51 -8 8 20 181 32 201 16 26 97 33 130 11z m-263 -49 c-46 -47 -50 -61
-26 -88 14 -16 13 -18 -18 -24 -18 -3 -41 -9 -50 -11 -15 -5 -15 1 4 58 24 74
37 91 72 91 14 0 26 3 26 8 0 5 8 9 17 9 12 0 5 -12 -25 -43z"/>
<path d="M3355 813 c-16 -3 -34 -9 -39 -14 -6 -5 -20 -9 -33 -9 -14 0 -23 -6
-23 -15 0 -10 10 -15 30 -15 17 0 30 -1 30 -2 0 -2 -7 -57 -15 -123 -8 -65
-15 -123 -15 -127 0 -4 -9 -8 -21 -8 -29 0 -19 -22 14 -31 28 -8 137 26 137
43 0 5 -23 6 -51 2 l-50 -7 5 34 c3 19 10 76 16 128 6 52 13 98 16 103 3 4 25
13 50 19 80 20 45 35 -51 22z"/>
<path d="M4109 806 c-2 -2 -20 -6 -39 -9 -37 -6 -100 -26 -112 -36 -4 -3 -3
-13 2 -21 7 -11 13 -12 34 -2 21 9 26 9 26 -1 0 -24 -32 -112 -45 -122 -20
-17 -3 -120 25 -150 21 -22 30 -25 60 -20 19 4 39 10 45 13 5 4 12 7 15 8 21
4 40 19 40 31 0 15 -15 13 -79 -13 -69 -28 -99 -9 -84 53 8 33 14 40 58 56 28
10 57 20 65 24 8 3 24 8 34 10 24 4 31 11 23 20 -4 3 -40 -1 -80 -9 -52 -11
-74 -13 -79 -5 -4 6 -3 14 2 17 5 3 16 25 25 50 19 55 32 70 59 70 11 0 39 9
61 19 l40 19 -46 1 c-25 1 -48 -1 -50 -3z"/>
</g>
</svg>
