<?xml version="1.0" encoding="UTF-8"?> <svg xmlns="http://www.w3.org/2000/svg" xmlns:xlink="http://www.w3.org/1999/xlink" version="1.1" id="Calque_1" x="0px" y="0px" viewBox="0 0 300 278.3" style="enable-background:new 0 0 300 278.3;" xml:space="preserve"> <style type="text/css"> .st0{fill:none;stroke:#1D1D1B;stroke-width:0.9651;stroke-miterlimit:10;} .st1{fill:none;stroke:#1D1D1B;stroke-width:1.1715;stroke-miterlimit:10;} .st2{fill:#FFFFFF;stroke:#1D1D1B;stroke-width:0.9651;stroke-miterlimit:10;} .st3{fill:#1D1D1B;} </style> <g> <path class="st0" d="M137.8,10.3c0,0,2.1-3.4,3-4.7c1-1.3,1.6-3.5,1.8-3.8c0.2-0.3,2.6-1.3,2.9-1.4s0.9,0.6,1.5,1s2.2,1.5,3,2 c0.8,0.4,1.9,2,3.3,1.8s2,0.7,2.3,1.1s1.3,1.4,1.3,1.4s1.5-0.3,2.6-0.4c1.1-0.1,2.6,1.4,2.6,1.4s2.9-1.3,3.7-1.8 c0.8-0.5,2.7-1.9,3.4-1.9s2.1,1.1,2.1,1.1s0.5,1.6,1.2,2.8s4,6.2,4.5,6.7c0.5,0.5,2,2.3,2,2.3s-0.2,2.2-0.3,3.1 c-0.1,0.9,0.6,3.3,0.5,4.6c-0.1,1.3-1.1,4.5-1.8,5.2c-0.7,0.8-1.9,2.3-1.9,2.3s1,1.3,1,1.8c0,0.5,0.2,1.4,0.3,1.9 c0.2,0.5,1.3,1.7,1.3,1.7l-0.6,0.4c0,0-0.8-0.8-1.1-0.4c-0.3,0.4-0.5,2.9-0.8,4.1c-0.3,1.2-0.7,4.2-2,4.6c-1.2,0.4-5,1.3-5,1.3 s-4.3,0.7-6.2,0.7c-1.8-0.1-5.7-1.7-6.1-2.2c-0.4-0.5-1.7-2.5-1.7-2.5s-0.9,1.1-1.8,1.2c-0.9,0.1-3.5,0.1-3.5,0.1s-3.3,2.3-4.8,3.4 c-1.5,1.1-2.6,1.5-3.7,1.5s-3.8-0.2-3.8-0.2s-1.1,0.8-2.3,1.1c-1.1,0.3-2.8-0.2-2.8-0.2s-0.4,0.3-1,0.4c-0.6,0.1-1.9-0.3-3-0.8 c-1.1-0.5-1.3-1-1.3-1l4.2-4.2c0,0-0.4-2.2,0.2-3.8c0.5-1.6,1-3.5,1-3.5s-0.7-0.5-0.7-1c0-0.5,0-1,0-1s-2-0.6-2.6-0.7 c-0.6-0.1-2.3-0.2-2.3-0.2s-1.2-3.5-1.8-6.1c-0.6-2.5-3-8.8-3.4-10.2c-0.3-1.4-0.8-2.2,0.3-3.2s1.8-2,1.8-2s1.4-0.1,1.7-0.2 c0.3-0.1,1.1,0.5,1.6,0.5s3.1-0.7,3.1-0.7c0.5-0.8,0.9-0.3,0.9-0.3l4.4-0.1c0,0,0.7-1.4,1.4-1.9C137.5,11.1,137.8,10.3,137.8,10.3z "></path> <g> <path class="st0" d="M137.5,31.1c0,0,0.4-0.4,0-1.2s-1.5-2.6-1.7-2.7c-0.2-0.1-2-1.2-2.8-1.2c-0.8,0-1.4,0.2-1.9,0.1 c-0.5-0.2-1.9-0.5-1.9-0.5s-1.2,1.2-1.5,1.8c-0.3,0.6-0.7,2.2-0.4,3.3c0.3,1,0.5,2.3,1.5,2.5c1.1,0.2,1.7,1.2,1.7,1.2 s1,2.7,1.8,3.3s3.8,1.5,4.4,1.4s2.1,0.7,2.1,0.7l2.1,0.1c0,0,0.9-0.7,1.5-0.8c0.6-0.1,2.2,0.8,3.5,0.8c1.3,0,3.6-0.5,5.1-0.9 c1.6-0.3,4.1-1.8,4.1-1.8l2.4-0.8c0,0-7-1.3-11.2-2.1C142.3,33.4,137.5,31.1,137.5,31.1z"></path> <path class="st0" d="M135.7,38.9c0,0,0,1.7,1.6,3.1c1.6,1.4,4,3.1,6.8,3.4c2.8,0.3,5.5,0.4,5.5,0.4s2.6,0.2,3.5-0.1 c1-0.3,1.2-0.7,1.8-1.2c0.6-0.5,1.1-1.5,1.4-2s0.8-1.7,0.8-1.7s-0.1-1,0.4-1.1c0.5-0.1,1.1,0.1,1.1,0.6s0.3,1.3,0.6,1.5 c0.3,0.1,2.2-0.1,2.2-0.1s-0.1,1.1,0,1.6c0.1,0.5,1,1.3,1.7,1.4s2.6-0.2,3.2-0.7c0.6-0.5,1.7-1.1,1.7-1.1s1.9-0.6,3.1-2.3 c1.2-1.7,1.2-2.6,1-3.4c-0.2-0.9-2.3-1.7-2.7-1.7c-0.4,0-2.6,0.6-2.6,0.6s-3.5,0.4-5.1,0.2c-1.5-0.1-2.3-0.4-2.8-0.3 c-0.5,0.1-1.3,0.3-1.3,0.3l-2.4,0.8c0,0-2.4,1.4-4.1,1.8c-1.7,0.4-4,0.9-5.1,0.9c-1.2,0-2.4-1.1-3.5-0.8c-1.1,0.2-1.5,0.8-1.5,0.8 l-2.1-0.1c0,0-2-0.8-2.1-0.7C136.7,39.1,135.7,38.9,135.7,38.9z"></path> <path class="st0" d="M156.9,36.1c0,0,2.4-2.2,3.3-2.6s3.5-0.4,4.5-0.5s2.8-0.2,3.9-0.6c1.1-0.4,2.5-0.8,2.9-1.7 c0.5-0.9-0.1-1.9,0.5-2.3c0.6-0.3,1.5-0.3,1.5-0.3s2.1-1,1.9-3.8s-1.4-5-1.4-6c0.1-1.7,1-1.7,1-1.7s-1.8-1.1-3.5-1.5 c-1.6-0.4-3.4-1.2-3.9-1.2c-0.5,0-0.8,0.1-0.8,0.1"></path> <path class="st0" d="M164.7,33c0,0,1.7-2.6,2.2-4.6c0.5-2,1.3-6.2,0.8-9.4s-0.9-5.5-1.6-6.8c-0.8-1.3-4-3.5-4-3.5 s-1.7-1.6-2.6-1.4c-0.9,0.2-2.6,0.4-2.6,0.4s-1.2,0.6-1.7,0.8c-0.5,0.2-1.2,0.7-1.2,0.7"></path> <path class="st0" d="M135.4,26.8c0,0-1.4-2.9-1.6-3.4c-0.2-0.5-0.5-2.3-0.5-2.3s-1-3.3-1.1-3.8s-0.1-1.5-0.1-1.5s1.1-0.2,1.5-0.6 c0.4-0.4,1.8-1.8,1.8-1.8s0.7-1.5,1.4-1.9c0.7-0.4,1.4-0.4,1.9-0.9c0.5-0.5,2.4-2.6,2.8-2.9c0.4-0.3,0.7-0.2,1-0.3 c0.3-0.1,2-0.8,3.2-0.8c1.2,0,2.7,0,3.7,0.5s1.8,1.5,1.8,1.5"></path> <path class="st0" d="M137.5,31.1c0,0,0.4-0.9,0.6-2.5c0.2-1.5,1.1-3.6,2.2-5c1.1-1.4,3.5-3.5,4.1-3.9c0.6-0.3,1.9-1.7,1.9-1.7 s1.8,0.1,2.5,0.2c0.7,0.1,2.5,0.2,3,0.2c0.5-0.1,1.8,0.1,1.8,0.1c0.4,0.4,3.3,2.8,4.3,3.3c1,0.5,2.9,2.5,3.5,3s1.7,1.4,1.7,1.8"></path> <path class="st0" d="M143,14.8c0,0,1.8-2.7,2.2-3.6c0.4-0.9,1.7-2,3.2-2.4c1.5-0.4,2.9-0.3,4.1-0.1c1.2,0.2,2.9,0.5,4.3,1.6 s2.7,3.2,2.8,4.1c0.1,0.8,1.3,6.5,1.5,7.4c0.3,0.9,1.5,2.6,1.6,3.6s0.9,2.9,0.5,4.3l-0.7,0.5l-0.4-1c0,0,0,0.2-1.1-0.2 c-1.1-0.4-2.6-1.9-3-2.9c-0.4-1-2-3.8-2.4-4.3c-0.4-0.5-1.4-1.3-2.2-1.3c-0.7,0-1.5,0.4-2.7,0.4c-1.6,0-2.1-1.6-2.8-1.8 s-1-0.1-1-0.1l-1-1c0,0,0,0-0.4-0.5c-0.4-0.5-1.4-1.7-2.1-2.5c-0.7-0.9-1.1-3-1.2-3.7c-0.1-0.6-0.2-2.4-0.2-2.4l0.6-1.6"></path> <path class="st0" d="M146.7,18.2l1.4-0.8c0,0,2.2-0.1,3.3-0.3s1.8-0.9,1.8-1.3c0-0.4,0.9-1.1,0.9-1.1l1.1-0.2c0,0,0.6-0.8,1.1-1.4 s0.6-1.9-0.3-2.1"></path> <path class="st0" d="M148.1,17.5c0,0-0.2-1.2-0.3-2.1c-0.1-0.9,0.2-1.8,0.5-2.2s1.3-0.7,1.4-1c0.1-0.4,1.2,1.5,1.2,1.5"></path> <path class="st0" d="M151.1,13.1l-1.5-1.6c0,0-0.6,0.7-1,0.8s-1.6,0.9-1.7,1.7c-0.1,0.8-0.6,2-0.6,2s-0.8,0.1-1.1,0.2 c-0.2,0.1-0.5,1.2-0.5,1.2"></path> <path class="st0" d="M148.9,17.3c0,0,0.8-1.9,0.3-2.6s-1.4,1.6-1.4,1.6"></path> <path class="st0" d="M151.9,16.9l-1.8-2c0,0-0.1-0.5,0.2-0.9c0.2-0.3,0.6-0.3,0.6-0.3s1.1-1.6,1.3-2c0.2-0.3,1.1-0.5,1.4-0.6 s1.5-0.4,1.6-0.4s0.8-0.4,1.2,0c0.3,0.5,1,0.7,0.9,1.7s-0.7,2.7-0.5,3.2c0.2,0.6,1.4,2.5,2.3,4c0.9,1.5,1.3,4.2,1.3,4.2"></path> <line class="st0" x1="149.2" y1="14.7" x2="150.1" y2="14.9"></line> <path class="st0" d="M155.7,43.7c0,0,1.7-0.5,1.9-0.6c0.2-0.1,0.6-0.3,0.7-0.4c0.2,0,1.4-0.8,1.4-0.8"></path> <path class="st0" d="M166.8,36.1c0,0,1.2-1.7,1.6-2.5c0.4-0.7,0.9-1.6,1.3-1.7"></path> </g> </g> <line class="st0" x1="150.2" y1="78.9" x2="150.2" y2="100.7"></line> <line class="st0" x1="150.2" y1="45.2" x2="150.2" y2="69.8"></line> <line class="st0" x1="148.1" y1="77.7" x2="148.1" y2="100.7"></line> <line class="st0" x1="148.1" y1="45.2" x2="148.1" y2="71.4"></line> <g> <g> <path class="st0" d="M83.6,58.6l2.2-0.6l1.5-0.4c0,0,1-0.8,2.1-1.3c1.1-0.6,3.6-1.2,4.5-1.1c0.9,0,3.3,1,4.7,1 c1.4,0,3.5,0.4,5-0.1s2.9-1,6.1-0.3c3.1,0.7,5.2,4.9,5.2,4.9l1.7,1.8c0,0,1.9,1.8,2.1,2.1c0.1,0.3,0.9,1.3,0.5,2 c-0.4,0.7-0.7,1.6-0.7,1.6l-4.4-0.8l-1.1-0.1l-1.6,0.1l-2.2,0.1l-1.8-0.2l-1,0.1l-1.8,0l-1-0.4c0,0-0.7-0.5-1-0.7 c-0.4-0.2-1.5-0.7-1.5-0.7l-0.7-0.6l-0.6-0.9l-1-0.9l-0.7-0.6l-2.7,0.2l-2-0.5l-2.1-0.4l-1.7-0.9l-0.4-0.9l-1.1-0.4L83.6,58.6z"></path> <path class="st0" d="M127.1,73.3c0,0,0.3-1.2,1.2-1.6c0.9-0.5,2.5-1,2.5-1l1.4-0.5l0.8-0.7l0.6-1.2l0.3-1.9l-0.4-1.3l-0.3-0.7 l-0.4-1.1l-0.1-1.6l0.1-0.9l-0.7-1.7c0,0,0.1-0.6-1.6-0.7c-1.7-0.1-3.7-0.5-5.5-1.6s-4.3-2-4.3-2l-1.1,0.8c0,0-1.1-0.8-1.7-0.1 c-0.7,0.7-1.2,2-1.2,2l0,0.9l-0.1,1.4l0.1,0.8l0.6,0.8l0.2,0.7c0.6,0.9,1.3,2.2,1.3,2.2s0.5-0.4,0.8,0c0.3,0.3,0.3,0.3,0.7,0.8 s0.5,0.7,0.7,1c0.1,0.3,0.1,1,0.1,1s0.5,1.3,0.7,1.6c0.1,0.3,0.5,0.6,1,1.1c0.5,0.5,1.6,0.6,2.4,0.9s1.5,0.7,1.7,1.4 C126.9,73.1,127.1,73.3,127.1,73.3z"></path> <path class="st0" d="M136.4,79.5l1.1-1.6c0,0,0.6-3.9,0-5.3c-0.5-1.3-1.9-3.4-1.8-4.2c0-0.8,0.1-2.9,0.1-2.9l0.6-1.2l0.2-1.1 l1.3,1.5c0,0,0.6,1.2,0.7,1.5c0.1,0.3,0.6,1.4,0.6,1.4l0.5,1.1c0,0,0.6,1.2,0.9,1.4c0.3,0.2,1,0.7,1.5,1.1 c0.5,0.4,1.1,1.1,1.4,1.7s0.5,1.3,0.6,1.9c0,0.6-0.5,2-0.5,2l0.9,1.4l-1.7,1.5c0,0-1.2-0.3-1.4-0.5c-0.3-0.2-0.5-2.6-1.9-2 c-1.4,0.6-2.3,2.9-2.3,2.9L136.4,79.5z"></path> <path class="st0" d="M126.2,73.9c0,0,0-4.1-2.7-4.3s-4.1,0.7-4.1,0.7l-1.2,1.2l-0.5,0.8l-0.7,1.7l-0.7,1.7l-0.1,0.9l0.1,0.8 c0,1.1-0.1,1.8-0.1,1.8L116,80c0,0-0.4,0.5-0.5,0.9c-0.1,0.4-0.5,1.1-0.5,1.1c0,1.3,0.1,2,0.1,2l0.2,0.7c0,0,0.2,0.4,0.2,0.7 c0,0.3,0,0.3,0,0.3s0.1,0.7,0.1,1s0,0.3,0,0.3s0,1.1,0.2,1.5c0.2,0.4,0.5,1.1,0.5,1.1l0.3,0.8l-0.3,1.2l1.3-0.5 c1.2,0,1.4-0.2,1.8-0.2c0.4,0,1.4-0.3,1.4-0.3c0.9-0.2,0.9-0.2,0.9-0.2l2.1-0.3l1.6-0.6l1.2-0.7l0.9-0.2c0,0,0.7-0.6,1.3-0.9 c0.6-0.3,1.4-1.1,1.4-1.1c0.9-0.8,1.2-1,1.5-1.6c0.3-0.7,0.4-1.6,0.6-1.9c0.2-0.4,0.5-1.4,0.5-1.8s0.1-1.9,0.1-1.9l-0.4-0.9 c0,0-1.3-2.3-2.4-3.5c-1.1-1.2-3.2-1.9-3.2-1.9L126.2,73.9z"></path> <path class="st0" d="M136.9,81.2l0.4,1.6l0.3,0.7c0,0,0.1,0.5,0.1,1s0,0.5,0,0.5l0,1.5l-0.5,1.5c0.1,1.2,0.1,2,0.1,2L138,91 l0.1,0.8l0.3,1.6l0.9,1.4c0.1,2,0.1,2,0.1,2l-0.4,1.3c0.3,0,1.2-0.6,1.2-0.6l0.7-0.6l1.3-0.7l0.7-0.7c0,0,0.5-1.1,0.4-1.5 c0-0.3-0.1-0.7-0.2-1.1c-0.1-0.4-0.1-0.4-0.1-0.4s-0.5-1-0.4-1.5c0.1-0.6-0.2-1.5-0.2-1.5l-0.5-1l-0.4-1l-0.5-1.5l-0.3-1.2 l-0.4-1.1l-0.9-1.2C139.4,82.4,137.4,81.4,136.9,81.2z"></path> </g> <path class="st0" d="M123.6,56.6c0,0,2.3,3,2.9,7c0.5,4.1,0.5,8.9,0.5,8.9s6.4,4.5,10.1,7.7s11.3,6.8,11.3,6.8"></path> <path class="st0" d="M118.5,66.9c0,0-8.4-4.4-12.2-5.5c-3.8-1.1-11.1-2.1-13.4-2.7c-2.4-0.6-6.1-0.4-6.1-0.4"></path> <path class="st0" d="M116.7,91.2c0,0,5.1-7.4,6.4-10.9s4-6.5,4-6.5"></path> <path class="st0" d="M137.2,78.7c0,0,1.1-3.5,1.7-5.5s1-4.1,1-4.1"></path> </g> <g> <path class="st0" d="M180.6,65.1c0.4,1,0.7,0.4,0.5,1.5c-0.1,1.1-0.8,2.4-0.8,2.4L181,69l0.8-1.2c0,0,9.2-4.3,11.7-5.8s7-4,8.7-4.8 c1.7-0.9,5.5-1.4,7.2-1.5c1.7-0.2,3.3-1.1,4.5-1.2c1.2-0.1,3-1.2,3-1.2l-2-0.1l-2.1-0.5l-1.9-0.8l-1.3-0.8l-1.9-0.6l-0.6-0.8 l-2-0.4l-1-0.5l-1.6,0.3l-1.2-0.2l-0.6,0.7l-1-0.2l-1,0.4l-1.2-0.1l-0.8,0.7l-1.9,0l-0.6,0.5l-1.3,0.1l-1,1l-1.1,0.7l-0.4,0.8 l-1.2,0.8l-0.5,1.4l-1.3,0.7l-0.6,0.7l-1.4,0.3l-0.4,0.8l-1.2,0.4l-0.5,1.1"></path> <path class="st0" d="M175.9,72.5l0.1-0.4l0.9-1.5l0.3-1.3l1.1-0.5l0.3-1l1-0.7l0.1-1.2l0.8-0.8l0-1.4l1.6-0.2l0.3-1l0.4-0.8l-0.2-1 l0.8-1.2l-0.7-1l0-1.8l-0.2-1l-0.4-1l-0.5-0.8l-1.2-0.7l-1.2-0.5l-1.4-0.8l-0.9-0.6l-1.8,0.4l-0.5,0.6l-1.2,0.5l-1.5,1.1l-1.1,1.1 l-1.3,1.1l-0.7,0.9l-0.4,0.9l-0.6,0.8l-1.6,0.6l-0.8,0.2l-0.6,1.8l-0.4,1.1l-0.4,1.5l-0.2,1.6l0.5,1.4l0.5,1.1l0.7,1l0.5,0.8 l1.2,0.9l4.1,2c0,0,1.9,1.4,2.2,1.7c0.3,0.2,1.1,0.8,1.1,0.8l0.7-0.8l0.3-0.9"></path> <path class="st0" d="M167.9,73.3c0,0,0.4,0,1-0.1c1.3-0.1,3.6-0.4,4.4-0.4c1.2,0,3.4-0.3,3.4-0.3s1.5-1.1,2.8-2.3 c1.3-1.2,4.3-2.7,4.3-2.7l2.9-1.7l-0.1,1l-1.6,1.5l-0.4,1.6c0,0-0.8,0.2-0.8,0.5c0,0.3-0.2,1-0.2,1l-1,0.4 c-0.6,0.4-2.3,0.5-2.3,0.5l-1.6,0.4l-1.4,0.6l-1,0.4l-2.2,0.3l-0.4,0.7l-1.8-0.8l-1,0.1l-0.9-0.2L167.9,73.3z"></path> <path class="st0" d="M166.1,78.1l0.4-4.2l2.1-2.2c0,0-0.9-0.6-2.4,1s-2.5,3.4-2.5,3.4s-1.8,0.9-3.1,0.9c-1.2,0-4,0.4-4.3,1 c-0.3,0.6-0.7,1.7-0.7,1.7l1.2,0.8c0,0,1.4-0.1,1.6,0c0.3,0.1,1,0.2,1,0.2s0.9,0.5,2.3-0.3c1.4-0.8,2.5-1.6,2.5-1.6l1.4,0.2 L166.1,78.1z"></path> <path class="st0" d="M163.8,77.1c0,0-0.9-1.1-0.7-2.1c0.2-1,0.5-3.8,0.5-3.8l-0.8-1.9L162,69l-0.9-0.7l-1.2-1l-0.6-0.2l-1.1-0.3 l-1.4-0.2l-1.1-0.3l-1-0.3l-1,0.1l-0.8,0.2c0,0-0.7,0.6-0.8,0.9c-0.1,0.3-0.1,0.3-0.1,0.3l-0.8,1.1l-0.4,0.6l-1.1,1.2 c0,0-0.3,0.3-0.6,0.5s-0.8,0.2-0.8,0.2l-0.7,0.5l-0.6,0.9l-0.3,1.2l-0.4,0.8l-0.3,1l0.6,0.7l0.6,0.8l0.6,0.6l0.7,0.3l0.6,0.5 c0,0,0.3,0.2,0.6,0.4c0.2,0.2,1,0.5,1,0.5c0.6,0.6,0.7,0.4,1.2,0.7c0.5,0.3,1.3,0.3,1.3,0.3s0.9,0.2,1.3,0.2c0.4,0,1.2,0.1,1.2,0.1 l1.3-0.1l0.8-0.7c0,0,0.7-0.2,1-0.1c0.3,0.1,0.6,0.2,1.3-0.1c0.7-0.3,1.2-0.8,1.2-0.8s0.9-0.8,1.2-0.8c0.3,0,1,0,1,0 C164.2,78.2,163.8,77.1,163.8,77.1z"></path> <path class="st0" d="M174.3,72.8c0,0-0.4-6.1-0.5-7.9c-0.1-1.9,0.9-7.7,1.6-9.6c0.7-1.9,1-4.4,1-4.4"></path> <path class="st0" d="M162.5,76.4c0,0-4.5-2.3-6.8-3c-2.3-0.7-6.3-1.1-7-0.9s-1.8,0.9-1.8,0.9"></path> </g> <line class="st0" x1="118.5" y1="68.1" x2="121.6" y2="69"></line> <path class="st0" d="M150.6,86.6c0,0,16.7-2.5,24.1-11.2"></path> <g> <path class="st1" d="M180.1,278.2c0,0-1.3-8.6-2-10.8c-0.7-2.3-2.7-6.4-2.7-6.4l-3.7-1.7l-4.5-2.3c0,0,0,0-2.8-0.8 c-2.8-0.8-16.3-1.2-19.2-1c-2.9,0.2-8.3,1-11.9,0.7c-0.8-0.1-2.7-1.7-4.8-2.6c-2.1-0.9-7-5.6-7-5.6s-4.4-1.6-6-2.2s-8.3-5-9.8-6.4 s-8.3-11-8.3-11s-0.6-0.8-1.2-1.5c-0.6-0.8-6-9-6.5-10.3c-0.5-1.3,0.3-3.2,1.7-4c1.7-1,4-1.1,5.2-0.5c2.7,1.3,7.6,8.4,7.6,8.4 s4,3.5,5.1,5c1.2,1.5,3.4,4.4,3.4,4.4"></path> <path class="st1" d="M95.8,211.6c0,0-0.1-1.9,1.9-2.9s2.2-0.1,3.4,0.1c1.2,0.3,2.4,1.7,4,3.9c1.6,2.1,3.6,6.1,3.6,6.1 s1.5,1.2,2.7,2.5c1.2,1.3,5.8,5.6,5.8,5.6"></path> <path class="st1" d="M103.7,211.2c0,0,2.1-1.7,4.3-0.3c2.2,1.4,6.9,7.5,6.9,7.5s3.6,1.5,5.3,3.7c1.4,1.8,5.6,5.5,5.6,5.5"></path> <path class="st1" d="M150.6,225.6l0.8,0.2c0,0,2.1,0,3.3-0.2c1.2-0.2,4.6-0.4,4.6-0.4l7.2-0.8c0,0,5-1,7.7-1.1s7.5,0,10.7,1.9 c3.2,1.9,7.2,6.2,7.2,6.2l3.4,5c0,0,3.7,5.5,5.7,9s7.4,17.3,7.8,20.7s0.8,9,0.8,9"></path> <path class="st1" d="M110.5,213.1c0,0,0.1-0.7,1.3-1.5c1.1-0.7,2.8-0.6,3.7,0c1,0.5,2.6,1.5,2.6,1.5s3.2,1.9,4.1,2.6 c0.9,0.7,1.8,1.9,1.8,1.9s2.1,1,3.6,1.9c1.5,0.9,3.2,2.7,3.2,2.7s2.7,0.8,4.5,1.3c1.8,0.5,3.6,1.8,3.6,1.8s0.2-0.7,2.1-0.9 c1.3-0.1,5.3,0.5,7.6,0.9"></path> <path class="st1" d="M110.8,230.8c0.9-1.2,2.9-1.6,2.9-1.6l2.8,0.5l5.7,2.7c0,0-1.5,2.4-2.1,3.6c-0.6,1.3-0.9,2.5-0.9,2.5 s-5.5-2-7-3.4S110.8,230.8,110.8,230.8z"></path> <path class="st1" d="M111.7,229.9c0,0,1.8-2.3,4.2-2.9c2.4-0.6,6.1-0.6,9.1,0.3c3,0.8,9.6,3.1,9.6,3.1s8.4,2.1,10.7,2.2 c2.3,0.1,4.8-0.2,6.1-0.4c1.3-0.2,4.4-2.9,4.4-2.9"></path> <path class="st1" d="M145.3,232.6c0,0,3.4-2.2,4.3-2.6c0.9-0.4,2-0.5,2-0.5s2.7-2.4,4.2-3c1.5-0.6,3.3-1.2,6.6-1.6"></path> <path class="st1" d="M119.2,238.6c0,0,3.7,3.3,5.3,4.3c1.5,1.1,2.3,3.1,4.7,3.5c2.4,0.4,4.6,0.8,5.5,1c0.9,0.2,21,5,21,5 s2.8,1.4,4,1.6"></path> </g> <line class="st2" x1="150.6" y1="200.8" x2="150.6" y2="227.4"></line> <line class="st2" x1="148.4" y1="200.8" x2="148.4" y2="227.4"></line> <g> <path class="st3" d="M71,116.3v4.1c0,0.3,0,0.4,0.3,0.5l3,1.3v0.3h-7.9v-0.3l2.1-1.1c0.2-0.1,0.3-0.2,0.3-0.5v-12.7 c0-0.3,0-0.4-0.3-0.5l-2.1-1.1v-0.3h7.1c3.4,0,5.9,1.7,5.9,5c0,3.3-2.8,5.3-6.1,5.3H71z M71,115.4h2.2c2,0,3.6-1.5,3.6-4.3 c0-2.8-1.4-4.2-3.4-4.2h-2.1c-0.3,0-0.3,0-0.3,0.3V115.4z"></path> <path class="st3" d="M94.1,116.8l-1.3-1.9c-0.2-0.3-0.3-0.3-0.6-0.3h-3.4v6.6c0,0.3,0,0.3,0.3,0.3h4.8c0.3,0,0.4,0,0.5-0.3l2.1-3.3 h0.3v4.5H84.1v-0.3l2.1-1.1c0.2-0.1,0.3-0.2,0.3-0.5v-12.7c0-0.3,0-0.4-0.3-0.5l-2.1-1.1v-0.3h12.6v4.6h-0.3l-1.9-3.3 c-0.1-0.3-0.2-0.3-0.5-0.3h-4.9c-0.3,0-0.3,0-0.3,0.3v6.5h3.4c0.3,0,0.4,0,0.6-0.3l1.3-1.9h0.3v5.3H94.1z"></path> <path class="st3" d="M107.1,116.3v4.1c0,0.3,0,0.4,0.3,0.5l3,1.3v0.3h-7.9v-0.3l2.1-1.1c0.2-0.1,0.3-0.2,0.3-0.5v-12.7 c0-0.3,0-0.4-0.3-0.5l-2.1-1.1v-0.3h7.1c3.4,0,5.9,1.7,5.9,5c0,3.3-2.8,5.3-6.1,5.3H107.1z M107.1,115.4h2.2c2,0,3.6-1.5,3.6-4.3 c0-2.8-1.4-4.2-3.4-4.2h-2.1c-0.3,0-0.3,0-0.3,0.3V115.4z"></path> <path class="st3" d="M120.3,122.5v-0.3l2.1-1.1c0.2-0.1,0.3-0.2,0.3-0.5v-12.7c0-0.3,0-0.4-0.3-0.5l-2.1-1.1v-0.3h7v0.3l-2.1,1.1 c-0.2,0.1-0.3,0.2-0.3,0.5v12.7c0,0.3,0,0.4,0.3,0.5l2.1,1.1v0.3H120.3z"></path> <path class="st3" d="M146.6,122.5h-1.1l-9.7-14.2v11.7c0,0.3,0,0.4,0.3,0.5l2.2,1.6v0.3h-5.9v-0.3l2.1-1.6c0.2-0.1,0.3-0.3,0.3-0.5 V108c0-0.3,0-0.4-0.3-0.5l-2.1-1.2v-0.3h4.5l8.6,12.6v-10.2c0-0.3-0.1-0.4-0.3-0.5l-2.2-1.6v-0.3h5.9v0.3l-2.1,1.6 c-0.2,0.1-0.3,0.3-0.3,0.5V122.5z"></path> <path class="st3" d="M153.6,122.5v-0.3l2.1-1.1c0.2-0.1,0.3-0.2,0.3-0.5v-12.7c0-0.3,0-0.4-0.3-0.5l-2.1-1.1v-0.3h7v0.3l-2.1,1.1 c-0.2,0.1-0.3,0.2-0.3,0.5v12.7c0,0.3,0,0.4,0.3,0.5l2.1,1.1v0.3H153.6z"></path> <path class="st3" d="M175.7,116.8l-1.3-1.9c-0.2-0.3-0.3-0.3-0.6-0.3h-3.4v6.6c0,0.3,0,0.3,0.3,0.3h4.8c0.3,0,0.4,0,0.5-0.3 l2.1-3.3h0.3v4.5h-12.7v-0.3l2.1-1.1c0.2-0.1,0.3-0.2,0.3-0.5v-12.7c0-0.3,0-0.4-0.3-0.5l-2.1-1.1v-0.3h12.6v4.6H178l-1.9-3.3 c-0.1-0.3-0.2-0.3-0.5-0.3h-4.9c-0.3,0-0.3,0-0.3,0.3v6.5h3.4c0.3,0,0.4,0,0.6-0.3l1.3-1.9h0.3v5.3H175.7z M173.8,104.4l-4.1-3.3 v-0.3h3l1.4,3.6H173.8z"></path> <path class="st3" d="M195.4,122.5l-3.8-7.1c-0.2-0.3-0.3-0.3-0.6-0.3h-2.3v5.4c0,0.3,0,0.4,0.3,0.5l2.1,1.1v0.3h-7v-0.3l2.1-1.1 c0.2-0.1,0.3-0.2,0.3-0.5v-12.7c0-0.3,0-0.4-0.3-0.5l-2.1-1.1v-0.3h7.1c3.3,0,5.8,1.5,5.8,4.3c0,2.2-1.4,3.7-3.4,4.2l3.3,6 c0.2,0.3,0.3,0.5,0.6,0.7l1.4,1v0.3H195.4z M188.8,114.2h2.4c1.7,0,3.3-1.1,3.3-3.7c0-2.5-1.6-3.6-3.3-3.6h-2.1 c-0.3,0-0.3,0-0.3,0.3V114.2z"></path> <path class="st3" d="M213.4,116.8l-1.3-1.9c-0.2-0.3-0.3-0.3-0.6-0.3h-3.4v6.6c0,0.3,0,0.3,0.3,0.3h4.8c0.3,0,0.4,0,0.5-0.3 l2.1-3.3h0.3v4.5h-12.7v-0.3l2.1-1.1c0.2-0.1,0.3-0.2,0.3-0.5v-12.7c0-0.3,0-0.4-0.3-0.5l-2.1-1.1v-0.3H216v4.6h-0.3l-1.9-3.3 c-0.1-0.3-0.2-0.3-0.5-0.3h-4.9c-0.3,0-0.3,0-0.3,0.3v6.5h3.4c0.3,0,0.4,0,0.6-0.3l1.3-1.9h0.3v5.3H213.4z"></path> <path class="st3" d="M222.5,122.1v-4.7h0.3l2,3.9c0.1,0.3,0.2,0.4,0.5,0.4c0.6,0.1,1.1,0.2,1.7,0.2c2.5,0,4.1-1.2,4.1-3.2 c0-1.7-1.1-2.5-2.9-3.3l-2-0.8c-1.8-0.7-3.6-2-3.6-4.5c0-2.9,2.5-4.6,5.9-4.6c1.3,0,2.5,0.1,3.7,0.4v4.4H232l-1.9-3.6 c-0.1-0.2-0.3-0.3-0.5-0.4c-0.3,0-0.7-0.1-1.1-0.1c-2.4,0-3.8,1.4-3.8,3.1c0,1.3,0.7,2.2,2.5,3l2.2,0.9c2.2,0.9,3.9,2,3.9,4.4 c0,2.9-2.3,5-6.3,5C225.6,122.9,223.9,122.6,222.5,122.1z"></path> </g> <g> <path class="st3" d="M77.7,193.6l-3.8-7.1c-0.2-0.3-0.3-0.3-0.6-0.3H71v5.4c0,0.3,0,0.4,0.3,0.5l2.1,1.1v0.3h-7v-0.3l2.1-1.1 c0.2-0.1,0.3-0.2,0.3-0.5v-12.7c0-0.3,0-0.4-0.3-0.5l-2.1-1.1V177h7.1c3.3,0,5.8,1.5,5.8,4.3c0,2.2-1.4,3.7-3.4,4.2l3.3,6 c0.2,0.3,0.3,0.5,0.6,0.7l1.4,1v0.3H77.7z M71,185.3h2.4c1.7,0,3.3-1.1,3.3-3.7c0-2.5-1.6-3.6-3.3-3.6h-2.1c-0.3,0-0.3,0-0.3,0.3 V185.3z"></path> <path class="st3" d="M101,185.2c0,5.2-3.3,8.7-7.6,8.7c-4.3,0-7.6-3.1-7.6-8.6c0-5.2,3.3-8.7,7.6-8.7 C97.7,176.7,101,179.8,101,185.2z M88.5,185.2c0,5.1,2.1,7.8,5,7.8c2.8,0,4.8-2.5,4.8-7.6c0-5.1-2.1-7.8-5-7.8 C90.6,177.6,88.5,180.1,88.5,185.2z"></path> <path class="st3" d="M107.1,193.2v-4.7h0.3l2,3.9c0.1,0.3,0.2,0.4,0.5,0.4c0.6,0.1,1.1,0.2,1.7,0.2c2.5,0,4.1-1.2,4.1-3.2 c0-1.7-1.1-2.5-2.9-3.3l-2-0.8c-1.8-0.7-3.6-2-3.6-4.5c0-2.9,2.5-4.6,5.9-4.6c1.3,0,2.5,0.1,3.7,0.4v4.4h-0.3l-1.9-3.6 c-0.1-0.2-0.3-0.3-0.5-0.4c-0.3,0-0.7-0.1-1.1-0.1c-2.4,0-3.8,1.4-3.8,3.1c0,1.3,0.7,2.2,2.5,3l2.2,0.9c2.2,0.9,3.9,2,3.9,4.4 c0,2.9-2.3,5-6.3,5C110.1,193.9,108.5,193.7,107.1,193.2z"></path> <path class="st3" d="M123,193.6v-0.3l2.1-1.1c0.2-0.1,0.3-0.2,0.3-0.5v-12.7c0-0.3,0-0.4-0.3-0.5l-2.1-1.1V177h7v0.3l-2.1,1.1 c-0.2,0.1-0.3,0.2-0.3,0.5v12.7c0,0.3,0,0.4,0.3,0.5l2.1,1.1v0.3H123z"></path> <path class="st3" d="M145.1,187.9l-1.3-1.9c-0.2-0.3-0.3-0.3-0.6-0.3h-3.4v6.6c0,0.3,0,0.3,0.3,0.3h4.8c0.3,0,0.4,0,0.5-0.3 l2.1-3.3h0.3v4.5h-12.7v-0.3l2.1-1.1c0.2-0.1,0.3-0.2,0.3-0.5v-12.7c0-0.3,0-0.4-0.3-0.5l-2.1-1.1V177h12.6v4.5h-0.3l-1.9-3.3 c-0.1-0.3-0.2-0.3-0.5-0.3h-4.9c-0.3,0-0.3,0-0.3,0.3v6.5h3.4c0.3,0,0.4,0,0.6-0.3l1.3-1.9h0.3v5.3H145.1z"></path> <path class="st3" d="M164.8,193.6l-3.8-7.1c-0.2-0.3-0.3-0.3-0.6-0.3h-2.3v5.4c0,0.3,0,0.4,0.3,0.5l2.1,1.1v0.3h-7v-0.3l2.1-1.1 c0.2-0.1,0.3-0.2,0.3-0.5v-12.7c0-0.3,0-0.4-0.3-0.5l-2.1-1.1V177h7.1c3.3,0,5.8,1.5,5.8,4.3c0,2.2-1.4,3.7-3.4,4.2l3.3,6 c0.2,0.3,0.3,0.5,0.6,0.7l1.4,1v0.3H164.8z M158.1,185.3h2.4c1.7,0,3.3-1.1,3.3-3.7c0-2.5-1.6-3.6-3.3-3.6h-2.1 c-0.3,0-0.3,0-0.3,0.3V185.3z"></path> <path class="st3" d="M172.8,193.6v-0.3l2.1-1.1c0.2-0.1,0.3-0.2,0.3-0.5v-12.7c0-0.3,0-0.4-0.3-0.5l-2.1-1.1V177h7v0.3l-2.1,1.1 c-0.2,0.1-0.3,0.2-0.3,0.5v12.7c0,0.3,0,0.4,0.3,0.5l2.1,1.1v0.3H172.8z"></path> <path class="st3" d="M185.5,193.2v-4.7h0.3l2,3.9c0.1,0.3,0.2,0.4,0.5,0.4c0.6,0.1,1.1,0.2,1.7,0.2c2.5,0,4.1-1.2,4.1-3.2 c0-1.7-1.1-2.5-2.9-3.3l-2-0.8c-1.8-0.7-3.6-2-3.6-4.5c0-2.9,2.5-4.6,5.9-4.6c1.3,0,2.5,0.1,3.7,0.4v4.4H195L193,178 c-0.1-0.2-0.3-0.3-0.5-0.4c-0.3,0-0.7-0.1-1.1-0.1c-2.4,0-3.8,1.4-3.8,3.1c0,1.3,0.7,2.2,2.5,3l2.2,0.9c2.2,0.9,3.9,2,3.9,4.4 c0,2.9-2.3,5-6.3,5C188.5,193.9,186.9,193.7,185.5,193.2z"></path> <path class="st3" d="M215.3,181.7h-0.3l-1.9-3.4c-0.2-0.4-0.3-0.4-0.6-0.4h-2.9v13.7c0,0.3,0,0.4,0.3,0.5l2.1,1.1v0.3h-7v-0.3 l2.1-1.1c0.2-0.1,0.3-0.2,0.3-0.5v-13.7h-2.9c-0.3,0-0.4,0-0.6,0.4l-1.9,3.4h-0.3V177h13.7V181.7z"></path> <path class="st3" d="M230.2,187.9l-1.3-1.9c-0.2-0.3-0.3-0.3-0.6-0.3h-3.4v6.6c0,0.3,0,0.3,0.3,0.3h4.8c0.3,0,0.4,0,0.5-0.3 l2.1-3.3h0.3v4.5h-12.7v-0.3l2.1-1.1c0.2-0.1,0.3-0.2,0.3-0.5v-12.7c0-0.3,0-0.4-0.3-0.5l-2.1-1.1V177h12.6v4.5h-0.3l-1.9-3.3 c-0.1-0.3-0.2-0.3-0.5-0.3h-4.9c-0.3,0-0.3,0-0.3,0.3v6.5h3.4c0.3,0,0.4,0,0.6-0.3l1.3-1.9h0.3v5.3H230.2z"></path> </g> <g> <path class="st3" d="M30.9,144.8h-0.1L22.4,132c-0.4-0.7-0.8-0.9-1.8-0.9h-0.8c-6.2,0-8.4,7.6-8.4,19c0,11.7,2.3,18.8,8.5,18.8h0.6 c1.1,0,1.4-0.2,1.8-0.8l8.5-13h0.1v13.9c-3.9,0.7-8,1-11.8,1C5.9,170.1,0,162.2,0,150.2c0-12.2,6.6-20.1,18.9-20.1 c4,0,8,0.3,12,1.1V144.8z"></path> <path class="st3" d="M45.7,160.4c-0.3,0.9-0.2,1,0.4,1.9l4.9,7.1v0.1H38v-0.1l5.3-7.1c0.8-1,0.9-1.3,1.3-2.3l7.7-23.5 c0.3-1.1,0.3-1.2-0.3-1.9l-3.3-3.8v-0.1h13L72,163.4c0.3,0.9,0.7,1.5,1.1,2.3l2.3,3.7v0.1H59v-0.1l2.7-3.7c0.3-0.4,0.3-0.8,0.1-1.5 l-2.6-8.2h-12L45.7,160.4z M47.5,154.9h11.4L53.3,137L47.5,154.9z"></path> <path class="st3" d="M96.4,165.9l3.6,3.5v0.1H81.6v-0.1l3.7-3.5c0.4-0.4,0.5-0.6,0.5-1.3v-29c0-0.7-0.1-0.9-0.5-1.3l-3.7-3.5v-0.1 H100v0.1l-3.6,3.5c-0.5,0.4-0.6,0.6-0.6,1.3v29C95.8,165.3,95.9,165.5,96.4,165.9z"></path> <path class="st3" d="M111.6,135.6c0-0.7-0.1-0.9-0.5-1.3l-3.7-3.5v-0.1h18.4v0.1l-3.6,3.5c-0.5,0.4-0.6,0.6-0.6,1.3v31.7 c0,1,0.2,1.1,0.9,1.1h5.2c0.9,0,1.2-0.2,1.6-0.8l7.7-12.5h0.1v14.4h-29.7v-0.1l3.7-3.5c0.4-0.4,0.5-0.6,0.5-1.3V135.6z"></path> <path class="st3" d="M149.2,135.6c0-0.7-0.1-0.9-0.5-1.3l-3.7-3.5v-0.1h18.4v0.1l-3.6,3.5c-0.5,0.4-0.6,0.6-0.6,1.3v31.7 c0,1,0.2,1.1,0.9,1.1h5.2c0.9,0,1.2-0.2,1.6-0.8l7.7-12.5h0.1v14.4h-29.7v-0.1l3.7-3.5c0.4-0.4,0.5-0.6,0.5-1.3V135.6z"></path> <path class="st3" d="M212.3,144h-0.1l-7.1-11.4c-0.4-0.7-0.7-0.9-1.5-0.9h-5.7c-0.8,0-0.9,0.1-0.9,1.1v16.6h3.8 c0.7-0.1,0.9-0.1,1.4-0.8l5-5.7h0.1v14.1h-0.1l-5-5.7c-0.6-0.6-0.8-0.7-1.5-0.7h-3.7v16.7c0,1,0.2,1.1,0.9,1.1h6.4 c0.9,0,1.3-0.1,1.7-0.8l6.9-11.7h0.1v13.6h-30.1v-0.1l3.7-3.5c0.4-0.4,0.5-0.6,0.5-1.3v-29c0-0.7-0.1-0.9-0.5-1.3l-3.7-3.5v-0.1 h29.6V144z"></path> <path class="st3" d="M227.6,160.4c-0.3,0.9-0.2,1,0.4,1.9l4.9,7.1v0.1h-13.1v-0.1l5.3-7.1c0.8-1,0.9-1.3,1.3-2.3l7.7-23.5 c0.3-1.1,0.3-1.2-0.3-1.9l-3.3-3.8v-0.1h13l10.3,32.8c0.3,0.9,0.7,1.5,1.1,2.3l2.3,3.7v0.1h-16.4v-0.1l2.7-3.7 c0.3-0.4,0.3-0.8,0.1-1.5l-2.6-8.2h-12L227.6,160.4z M229.4,154.9h11.4l-5.6-17.9L229.4,154.9z"></path> <path class="st3" d="M265.8,156.3v-20.7c0-0.7-0.1-0.9-0.6-1.3l-3.3-3.5v-0.1h17.9v0.1l-3.4,3.5c-0.5,0.4-0.6,0.6-0.6,1.3v20.1 c0,9,3,12.3,8.5,12.3c5.2,0,8.4-4,8.4-12.5v-15.5c0-0.8-0.1-1.1-0.7-1.8l-5.4-7.4v-0.1H300v0.1l-5.4,7.4c-0.7,0.8-0.7,1-0.7,1.8 v15.4c0,9.2-3.4,14.7-13,14.7C270.5,170.1,265.8,166.4,265.8,156.3z"></path> </g> </svg> 